<?xml version="1.0" encoding="UTF-8" standalone="no"?>
<!-- Created with Inkscape (http://www.inkscape.org/) -->

<svg
   xmlns:dc="http://purl.org/dc/elements/1.1/"
   xmlns:cc="http://creativecommons.org/ns#"
   xmlns:rdf="http://www.w3.org/1999/02/22-rdf-syntax-ns#"
   xmlns:svg="http://www.w3.org/2000/svg"
   xmlns="http://www.w3.org/2000/svg"
   xmlns:sodipodi="http://sodipodi.sourceforge.net/DTD/sodipodi-0.dtd"
   xmlns:inkscape="http://www.inkscape.org/namespaces/inkscape"
   width="728.40204"
   height="342.44171"
   id="svg2"
   version="1.1"
   inkscape:version="0.48.4 r9939"
   sodipodi:docname="Neuere Analytik.svg">
  <defs
     id="defs4">
    <marker
       inkscape:stockid="Arrow1Lstart"
       orient="auto"
       refY="0.0"
       refX="0.0"
       id="Arrow1Lstart"
       style="overflow:visible">
      <path
         id="path4149"
         d="M 0.0,0.0 L 5.0,-5.0 L -12.5,0.0 L 5.0,5.0 L 0.0,0.0 z "
         style="fill-rule:evenodd;stroke:#000000;stroke-width:1.0pt"
         transform="scale(0.8) translate(12.5,0)" />
    </marker>
    <marker
       inkscape:stockid="Arrow1Lend"
       orient="auto"
       refY="0"
       refX="0"
       id="Arrow1Lend"
       style="overflow:visible">
      <path
         id="path3790"
         d="M 0,0 5,-5 -12.5,0 5,5 0,0 z"
         style="fill-rule:evenodd;stroke:#000000;stroke-width:1pt"
         transform="matrix(-0.8,0,0,-0.8,-10,0)"
         inkscape:connector-curvature="0" />
    </marker>
    <marker
       id="ArrowStart"
       viewBox="0 0 10 10"
       orient="auto"
       markerHeight="3"
       markerWidth="4"
       refY="5"
       refX="10"
       markerUnits="strokeWidth">
      <path
         id="path10"
         d="M 10,0 0,5 10,10 z"
         inkscape:connector-curvature="0" />
    </marker>
    <marker
       id="ArrowEnd"
       viewBox="0 0 10 10"
       orient="auto"
       markerHeight="3"
       markerWidth="4"
       refY="5"
       refX="0"
       markerUnits="strokeWidth">
      <path
         id="path7"
         d="M 0,0 10,5 0,10 z"
         inkscape:connector-curvature="0" />
    </marker>
    <linearGradient
       id="linearGradient3783">
      <stop
         offset="0"
         style="stop-color:#deaa87;stop-opacity:0.49803922"
         id="stop3791" />
      <stop
         offset="1"
         style="stop-color:#d8c3b4;stop-opacity:0.04705882"
         id="stop3787" />
    </linearGradient>
  </defs>
  <sodipodi:namedview
     id="base"
     pagecolor="#ffffff"
     bordercolor="#666666"
     borderopacity="1.0"
     inkscape:pageopacity="0.0"
     inkscape:pageshadow="2"
     inkscape:zoom="1.3930004"
     inkscape:cx="335.07766"
     inkscape:cy="172.17533"
     inkscape:document-units="px"
     inkscape:current-layer="layer1"
     showgrid="false"
     inkscape:window-width="1366"
     inkscape:window-height="706"
     inkscape:window-x="0"
     inkscape:window-y="27"
     inkscape:window-maximized="1"
     fit-margin-top="0"
     fit-margin-left="0"
     fit-margin-right="0"
     fit-margin-bottom="0" />
  <metadata
     id="metadata7">
    <rdf:RDF>
      <cc:Work
         rdf:about="">
        <dc:format>image/svg+xml</dc:format>
        <dc:type
           rdf:resource="http://purl.org/dc/dcmitype/StillImage" />
        <dc:title></dc:title>
      </cc:Work>
    </rdf:RDF>
  </metadata>
  <g
     inkscape:label="Ebene 1"
     inkscape:groupmode="layer"
     id="layer1"
     transform="translate(-9.0913725,-16.95582)">
    <rect
       style="fill:#aaaaff"
       y="187.6716"
       x="9.0913725"
       height="171.72594"
       width="728.40204"
       id="rect3143" />
    <rect
       id="rect3141"
       width="728.40204"
       height="171.72594"
       x="9.0913725"
       y="16.95582"
       style="fill:#e6e6e6" />
    <g
       style="fill-rule:evenodd"
       id="g20737"
       transform="matrix(0.36010553,0,0,0.36010553,20.664239,94.117878)">
      <g
         id="g12"
         transform="translate(-45.818929,-146.79372)">
        <path
           style="fill:#f9f9f9;fill-opacity:1;fill-rule:nonzero;stroke:none"
           id="path3001"
           transform="matrix(0.87389562,0,0,0.86425706,8.153285,-5.6659592)"
           d="m 633.77402,478.10336 a 294.42114,294.42114 0 1 1 -588.842288,0 294.42114,294.42114 0 1 1 588.842288,0 z"
           inkscape:connector-curvature="0" />
        <path
           style="fill:#37abc8;stroke:none"
           id="path16"
           d="m 231.65774,310.96423 c 21.8312,6.8084 -24.84166,29.35276 -9.86077,13.98891 3.94743,-5.03506 -1.46943,-11.18521 8.28914,-12.25216 l 0.63052,-1.22678 0.94111,-0.50997 z m -40.7,-88.183 c 15.91793,-4.77277 17.22489,-12.49772 33.2549,-19.94555 3.31218,-7.78807 10.85536,-10.66765 17.2431,-14.72545 -14.43281,2.67663 -2.88151,-10.54533 -17.441,0.719 6.22557,-10.74241 -19.73071,-3.4486 -1.402,-3.734 -9.04969,10.24372 -28.16914,26.71848 -42.45897,35.00184 -2.48409,-1.74099 18.22362,-18.91073 0.22428,-4.49101 -5.66851,10.31297 -23.3128,13.9312 -11.30708,1.3088 8.62157,-4.58436 5.35984,-15.26148 12.14177,-9.09663 11.19425,-4.82221 8.64304,-6.00847 19.52109,-11.76666 -9.17501,-2.18877 -21.30027,7.75905 -30.88009,10.14766 25.30971,-20.79926 -15.99302,-3.51573 -21.304,8.845 -9.31412,9.38013 -31.47434,28.64206 -9.63909,11.99087 5.17283,2.78798 32.12914,-28.72475 29.41902,-12.21929 -5.99379,5.47668 -8.22976,10.18669 -15.18014,13.81367 -11.21591,11.96893 22.31572,-10.54853 1.68233,6.2495 -13.71764,9.122 -11.71633,27.1469 -25.3935,35.70733 -8.98188,2.77377 -11.48653,25.89934 -13.88362,17.75492 -12.37971,-11.39302 25.323,-21.23365 3.801,-20.26052 -1.63628,-4.24827 -2.75338,6.55973 -7.537,-0.0775 -5.91659,8.05996 1.35119,18.8051 -10.16331,16.68239 -10.775379,0.0852 14.36513,-12.10608 -5.147919,-8.64452 -3.05659,-1.45466 -7.976064,6.45924 -12.881942,13.00274 -14.075109,10.28643 -18.708023,25.91246 -24.166722,43.35552 -15.858062,50.67381 -15.320635,117.93503 4.936635,165.63634 44.571508,104.9559 140.898468,167.99759 251.184738,163.3477 -10.37435,-4.2598 -34.039,-19.1084 -12.32048,-28.58717 -12.28429,-8.60035 -6.52753,-21.61807 -23.365,-30.148 11.13658,-9.58567 2.42855,-23.66085 -11.58987,-20.63779 -12.46762,1.87454 -19.14426,-13.07995 -32.1728,-6.64963 -18.34015,1.21381 -38.31246,-5.28636 -54.9772,-13.97042 -15.73382,-15.08257 -33.03185,-33.85187 -31.86116,-54.97141 4.13901,-11.41035 6.72689,-18.74938 3.97803,-29.63975 13.22444,-11.69646 18.94415,-30.26867 36.932,-30.148 -3.27369,-14.96511 39.20864,-32.32689 10.78649,-33.2587 -0.48735,-14.63112 1.43455,-19.14207 7.39581,-33.57428 -1.83086,-24.84701 25.45452,6.47874 31.90661,-7.88313 13.01042,-14.78037 -23.30613,-31.18628 5.32437,-27.13405 11.01846,0.14327 14.77304,-9.56858 0.36072,-5.17584 -11.13487,-0.78985 -21.03781,1.79245 -6.783,-7.537 -11.50706,-3.33369 13.09294,-8.00972 0.93857,-15.74856 -0.65693,-4.44026 5.05388,-6.25926 -0.9265,-5.73194 -3.05303,-4.17401 8.8214,-9.70105 -1.44807,-12.1155 5.44551,-15.5875 4.78072,-2.82469 8.39832,-4.93899 4.40365,-0.87019 10.0039,4.91924 2.86468,11.42199 6.15752,11.15807 14.19501,23.86807 10.523,31.635 6.51676,-5.20584 19.04085,-9.42775 22.611,-14.32 -9.56183,-17.91429 19.2641,-26.65999 6.43863,-10.50688 -5.16989,12.01597 9.46993,10.12867 -0.0696,3.08288 7.76516,1.78428 12.68907,-6.18014 5.83549,-14.72602 -1.24757,-11.96119 -14.85642,10.29951 -17.70298,-3.78824 -8.87918,-21.33523 23.30382,-24.4049 27.18299,-42.56549 -7.7063,1.692 18.24784,-23.85403 29.47788,-11.95404 12.40142,0.59493 36.83144,15.58875 11.25701,12.55373 0.74968,-0.8439 3.88156,13.68321 12.56566,11.84155 9.81543,2.31686 -6.67355,-7.06139 2.02611,-6.2694 -1.84428,-7.09905 6.48605,-11.76103 -2.39416,-17.56109 14.69945,-2.16628 2.67259,5.98057 12.43492,10.44725 10.11811,6.85016 -5.95844,-23.35161 8.66808,-11.95425 18.4881,-19.57988 -21.83823,-1.26457 -22.56625,-19.1055 -8.183,-13.89842 4.82997,-24.23715 4.71342,-5.12537 3.52314,13.85188 19.378,9.84858 30.19689,11.87159 4.83598,0.97021 -25.32986,-13.11155 -15.51401,-17.78872 6.98837,-2.20814 9.70152,0.0105 5.41095,-4.416 -2.91075,-5.09762 -8.82378,-11.13644 -11.6112,-16.42256 -18.37933,-10.25446 22.72626,-0.19276 8.6172,-10.81744 -6.18064,0.19237 5.01147,-10.99622 -10.54387,-8.47288 -11.03247,7.17374 -31.19338,-12.00325 -9.88343,-1.16393 16.52017,1.34475 -17.15739,-14.01519 -25.34633,-14.99961 -26.32735,-3.16489 -47.20074,-0.54623 -72.88158,2.75179 -14.09927,1.81068 -11.72081,11.95678 -1.18379,9.82563 -2.84836,8.14655 -17.1553,5.93964 -1.843,6.638 -9.61461,4.06798 19.76669,5.26243 6.365,13.712 7.90939,3.72905 20.4021,9.85228 11.89681,11.42383 16.98635,-0.40498 -12.13751,13.71593 -12.94067,20.82242 -11.52034,4.58105 -21.39882,16.90263 -26.07432,12.2362 8.58723,6.60268 -8.31485,7.79442 -12.95962,5.20373 -11.50988,-4.14466 -27.91611,7.28741 -39.23511,15.12018 -20.13726,13.95557 -6.46246,-22.25701 8.46491,-29.38236 l 0,0 z m 238.924,401.724 c 6.40663,-13.23562 18.30773,-22.15766 30.66355,-31.87549 15.79897,-5.80706 -10.54785,22.36259 -19.3738,25.80711 -3.51847,2.42431 -7.00588,5.10243 -11.28975,6.06838 z m 3.015,-18.843 c -1.70789,18.88959 -28.86368,19.39437 -37.555,33.294 -8.79087,4.39791 -27.58852,16.81729 -5.39408,8.74285 56.78486,-20.65858 86.95044,-50.33453 105.26353,-69.12042 41.86025,-42.94099 68.19469,-107.94575 66.67953,-178.7186 -1.99063,-5.1766 -11.6479,-50.63991 -12.99371,-29.06697 -0.15705,22.80351 -0.68446,45.70125 1.21661,68.38378 -6.514,30.33311 -15.81271,-35.44397 -17.60357,-18.74596 -6.67479,-1.61269 -7.42999,-5.14132 -15.72531,-9.23268 -6.06033,9.20306 -19.57814,20.72739 -28.05317,13.79648 -5.84207,17.86075 -20.81533,2.55547 -26.44083,-1.72848 -14.22343,12.05809 20.19336,25.65398 23.98995,16.28943 4.58178,-13.93656 1.75217,-10.95546 10.44662,-5.73743 11.04913,2.3416 1.83806,23.45322 -1.51239,33.05216 -9.02829,12.0993 -13.55761,29.2514 -28.5494,39.12204 -8.52857,11.15512 -19.55919,17.20335 -19.44878,-2.8332 -10.13878,-14.67356 -23.23783,-17.97016 -31.44862,-34.593 -0.8842,-12.39843 -11.32667,-15.76536 -14.24388,-8.21375 -7.06733,-4.64191 10.60583,20.08304 14.83331,23.4748 6.50154,18.50029 18.39786,31.29679 36.88919,36.66695 1.51203,24.84315 40.22838,-38.24033 30.33833,-5.63947 -7.04322,24.3015 -26.08941,41.63796 -39.03157,62.56838 -7.54999,8.63796 -17.92212,18.85972 -11.65676,28.23909 z m -37.686,-6.029 c 8.15562,0.28531 18.91305,-13.70777 8.63463,-12.519 -6.98633,0.16129 -6.77317,7.68162 -8.63463,12.519 z m -92.705,-390.419 c 6.66571,-9.7741 12.98986,1.67349 6.59991,2.24125 7.94653,9.07593 -6.79724,-3.04174 -4.81691,11.41175 -2.32239,-0.86017 -12.5617,-22.78779 -1.783,-13.653 z m 15.828,55.774 c 1.5898,9.92753 -18.09121,16.52834 -1.508,24.119 -1.72746,10.17572 -9.72351,27.73238 -18.37155,28.04943 -11.60199,8.33536 14.19655,7.33776 18.33666,0.92368 9.54033,3.98375 7.36101,-4.25037 9.26089,-9.41311 -4.13441,-11.59926 13.94608,1.07542 3.84868,-12.63922 -10.28503,8.88061 6.5535,-9.81496 13.14937,-6.92078 -3.01479,-7.82143 -24.61551,12.44256 -20.94805,-3.769 -14.0255,-9.27229 22.267,-26.29485 -3.768,-20.35 z m 47.564,96.053 c 0.89577,5.53631 -1.53271,14.67861 -5.87355,21.57222 10.48947,12.65976 31.23272,-9.64031 47.2845,0.0159 19.64923,-12.32237 -23.19029,-30.38862 -26.84082,-10.77947 -8.18177,-6.27534 4.73115,-15.17165 -8.54352,-13.42136 -3.26993,-0.56342 -3.30753,-5.92333 -6.02661,2.61275 z m 79.058,23.033 c 13.11612,7.15241 27.23598,-6.4052 11.2923,-14.78985 -6.92764,-8.91694 -8.98062,-16.27949 -18.42629,-20.21158 -4.77582,-1.95588 10.36115,-23.12401 -5.89888,-13.39894 -11.31502,5.16987 -5.76022,20.52245 0.40385,25.29776 16.03683,9.94092 14.39575,4.27932 12.62902,23.10261 z m -161.293,27.133 c -10.75871,6.82957 -10.00351,-9.85427 -5.60939,-14.73629 -0.80275,-5.50072 8.59459,-19.78934 5.23289,-3.47271 -2.45141,5.01611 4.06232,12.18064 0.3765,18.209 z m -66.326,6.03 c 7.54694,18.19556 42.54905,-2.48582 60.989,7.35 8.87714,-3.3109 14.63052,-1.44793 11.51083,8.08477 -12.78122,4.62271 3.90845,11.35689 8.14717,10.19023 12.36123,1.67889 15.41494,12.8712 28.89005,14.26732 10.54951,3.14658 2.85361,-23.94455 21.44295,-14.97732 3.93466,6.2291 12.71532,3.08184 20.04865,4.78787 12.38419,4.193 18.87906,-10.73678 30.66686,-8.66209 4.05273,-9.27482 2.88429,-37.21748 1.3855,-33.02818 -7.16793,6.50863 -18.92301,7.03748 -28.5521,11.71462 -4.91043,-3.71032 -9.56106,4.60389 -11.15591,-8.50922 -3.36006,-7.22829 -4.01496,-20.13272 -17.504,-7.8 -3.95398,0.85402 12.46513,9.827 9.06705,14.50473 -8.27831,-5.41254 -7.46206,-1.06558 -8.98957,6.59927 -7.65783,-4.6231 -13.67364,-24.8124 -24.49339,-33.86709 -11.6404,-5.51754 -12.57522,-16.69211 -20.76309,-18.72791 -6.35434,16.76095 27.83896,28.13227 22.40236,32.99419 -13.62968,-8.34383 6.38063,15.67161 -11.64773,14.97907 0.11982,12.801 -24.53828,-8.16385 -2.74106,-2.16226 15.50308,-9.14887 -12.44225,-19.97725 -17.51218,-28.81539 -4.85783,-19.67864 -17.70522,9.80238 -27.58305,-6.56823 -1.03193,8.6918 -21.49092,15.35681 -19.48934,28.60062 -7.30052,6.85284 -13.33146,9.23601 -24.119,9.045 z m 3.015,-159.786 c 0.59221,0.16151 9.03484,-14.31398 7.914,-5.653 20.12081,2.56586 -1.07825,21.69373 -11.682,8.668 1.256,-1.005 2.512,-2.01 3.768,-3.015 z"
           inkscape:connector-curvature="0" />
      </g>
      <g
         id="g18"
         transform="translate(-42.251598,-150.36105)" />
    </g>
    <path
       style="fill:none;stroke:#000000;stroke-width:1px;stroke-linecap:butt;stroke-linejoin:miter;stroke-opacity:1;marker-end:url(#Arrow1Lend)"
       d="m 213.14219,165.44825 112.12693,0"
       id="path33236"
       inkscape:connector-curvature="0"
       sodipodi:nodetypes="cc" />
    <path
       inkscape:connector-curvature="0"
       style="fill:#d40000"
       d="m 292.748,296.5364 c -0.14001,-0.22653 -0.14026,-1.02112 -4.1e-4,-1.76577 0.18476,-0.98482 0.0141,-1.82411 -0.62603,-3.07887 -0.84729,-1.66084 -0.86932,-1.99592 -0.59247,-9.01055 0.28566,-7.23769 0.28177,-7.28866 -0.59239,-7.7565 l -0.87995,-0.47093 0.0826,-12.65817 c 0.0454,-6.96199 0.0627,-13.13037 0.0385,-13.7075 -0.0277,-0.65921 -0.70971,-1.74403 -1.83444,-2.91789 -0.98468,-1.02771 -2.44527,-3.03969 -3.24575,-4.47108 -1.33343,-2.3844 -1.43641,-2.7932 -1.22868,-4.87771 0.12471,-1.25135 0.32736,-3.71438 0.45034,-5.47339 0.21279,-3.04354 1.64534,-10.95571 2.05839,-11.36876 0.10716,-0.10715 0.95113,-0.48235 1.87549,-0.83377 2.15078,-0.8177 7.47586,-4.3187 7.78191,-5.11628 0.12861,-0.33515 -0.0582,-1.43278 -0.4152,-2.43918 -1.35345,-3.8158 -1.30697,-4.7961 0.34614,-7.30049 1.67011,-2.53016 2.32267,-2.83144 5.39229,-2.48964 2.95026,0.32851 3.9051,0.77897 4.20782,1.9851 0.34325,1.36762 -0.0749,5.36935 -0.61775,5.91223 -0.23253,0.23252 -0.42211,1.33126 -0.42129,2.44164 0.002,2.51839 1.15185,4.61739 2.52975,4.61739 1.32879,0 3.00673,0.9175 4.83093,2.64154 1.51757,1.43426 1.57417,1.58454 1.85145,4.91587 0.39301,4.72184 1.60907,8.81941 2.86947,9.66886 0.48026,0.32367 0.46265,1.34659 -0.0717,4.16166 -0.2504,1.31925 -0.5335,2.93463 -0.62912,3.58972 -0.0956,0.65509 -0.53697,1.68222 -0.98078,2.28251 -0.44382,0.60029 -0.80694,1.35386 -0.80694,1.6746 0,1.1227 -0.50617,1.88236 -1.64754,2.47258 l -1.15088,0.59514 0,5.21017 c 0,2.86559 0.17061,6.41396 0.37913,7.88528 0.20852,1.4713 0.46246,4.99214 0.56431,7.82408 0.17792,4.94709 0.1498,5.18221 -0.71715,5.99661 -1.17106,1.10011 -1.61377,3.97702 -1.47158,9.5632 0.0751,2.94939 -0.0442,4.50374 -0.37635,4.90394 -0.26744,0.32225 -0.48626,1.32893 -0.48626,2.23708 0,1.44755 0.20393,1.82057 1.65361,3.02476 2.71355,2.25402 2.38351,2.50659 -3.27549,2.50659 l -4.9291,0 0.40217,-2.21871 c 0.30717,-1.69473 0.26901,-2.70969 -0.16159,-4.29758 -0.37119,-1.36885 -0.56594,-4.22239 -0.57017,-8.35498 -0.004,-4.07031 -0.16296,-6.43275 -0.45175,-6.72175 -0.29745,-0.29768 -0.89473,-0.32949 -1.79898,-0.0958 l -1.35369,0.3498 -0.31504,5.17262 c -0.19599,3.21799 -0.1605,6.07126 0.0939,7.55067 0.32841,1.90955 0.29647,2.54975 -0.1621,3.24962 -0.3141,0.47938 -0.62622,1.83789 -0.6936,3.01892 l -0.12252,2.14734 -2.26343,0.11884 c -1.25612,0.0659 -2.37672,-0.0645 -2.51798,-0.29303 z"
       id="path33242" />
    <path
       style="fill:none;stroke:#000000;stroke-width:1px;stroke-linecap:butt;stroke-linejoin:miter;stroke-opacity:1;marker-end:url(#Arrow1Lend)"
       d="m 200.0102,236.15893 76.7716,0"
       id="path33281"
       inkscape:connector-curvature="0"
       sodipodi:nodetypes="cc" />
    <g
       id="g33311"
       transform="matrix(2.0575257,0,0,2.0575257,-410.7199,-301.12919)">
      <g
         id="g33313"
         transform="matrix(0.61227614,0,0,0.61227614,76.923684,129.01789)">
        <path
           inkscape:connector-curvature="0"
           id="path33315"
           d="m 672.88722,218.39971 c 0.0421,3.9189 -3.21856,7.1359 -6.76185,7.73702 -3.78436,0.77575 -8.1594,-1.11878 -9.71427,-4.96396 -1.17716,-2.83134 -0.32113,-6.30591 1.89228,-8.2986 3.52936,-3.38518 9.64716,-3.1333 12.79978,0.68979 1.10862,1.30369 1.78006,3.01518 1.78378,4.77096"
           style="fill:#ffffff;fill-opacity:1;stroke:#000000;stroke-width:2;stroke-linecap:round;stroke-linejoin:round;stroke-miterlimit:4;stroke-opacity:1;stroke-dasharray:none;stroke-dashoffset:0" />
        <path
           inkscape:connector-curvature="0"
           id="path33317"
           d="m 653.51161,235.00393 c 0.0501,2.85374 -2.33337,5.39904 -5.12552,5.77847 -2.79994,0.48073 -5.88286,-1.12952 -6.82451,-3.86067 -0.92041,-2.41687 0.1005,-5.32504 2.26988,-6.70435 2.38404,-1.64155 5.88855,-1.3699 7.93156,0.70305 1.08664,1.04688 1.75471,2.52022 1.74838,4.03546"
           style="fill:#ffffff;fill-opacity:1;stroke:#000000;stroke-width:2;stroke-linecap:round;stroke-linejoin:round;stroke-miterlimit:4;stroke-opacity:1;stroke-dasharray:none;stroke-dashoffset:0" />
        <path
           inkscape:connector-curvature="0"
           id="path33319"
           d="m 699.43496,130.5406 c -8.06389,0 -15.22336,3.56731 -19.77573,9.08726 -3.00249,-2.87283 -6.9985,-4.62294 -11.37161,-4.62294 -6.94989,0 -12.89734,4.40525 -15.49439,10.71888 -10.2123,0.61452 -18.30331,8.52219 -18.30331,18.1972 0,7.1313 4.38508,13.29314 10.78264,16.29362 -0.0668,0.64258 -0.11326,1.28865 -0.11326,1.94889 0,10.3216 8.37086,18.69575 18.68841,18.69575 3.38197,0 6.55116,-0.92057 9.28756,-2.49277 4.15655,5.79982 11.20296,9.60848 19.18677,9.60848 10.00672,0 18.52351,-6.00589 21.7465,-14.39005 2.11527,0.68143 4.36917,1.04243 6.70517,1.04243 12.2828,0 22.24487,-10.17347 22.24487,-22.70684 l 0,-0.18129 c -0.0914,-11.37139 -8.36864,-20.72689 -19.09615,-22.27626 -2.13555,-10.77436 -12.28997,-18.92236 -24.48747,-18.92236 z"
           style="fill:#ffffff;fill-opacity:1;stroke:#000000;stroke-width:2;stroke-linecap:round;stroke-linejoin:round;stroke-miterlimit:4;stroke-opacity:1;stroke-dasharray:none;stroke-dashoffset:0" />
      </g>
      <text
         sodipodi:linespacing="125%"
         id="text33321"
         y="230.52007"
         x="498.26215"
         style="font-size:10.32551669999999966px;font-style:normal;font-variant:normal;font-weight:normal;font-stretch:normal;text-align:center;line-height:125%;letter-spacing:0px;word-spacing:0px;writing-mode:lr-tb;text-anchor:middle;fill:#000000;fill-opacity:1;stroke:none;font-family:Handlee;-inkscape-font-specification:Handlee"
         xml:space="preserve"><tspan
           y="230.52007"
           x="498.26215"
           id="tspan33323"
           sodipodi:role="line">Der Apfel</tspan><tspan
           y="243.42696"
           x="498.26215"
           sodipodi:role="line"
           id="tspan33325">ist rot</tspan></text>
    </g>
    <g
       id="g33353"
       transform="translate(-82.832509,0)">
      <g
         transform="translate(71.720831,0)"
         id="g33276">
        <path
           id="path2279"
           d="m 352.347,197.54145 c -0.14001,-0.22653 -0.14026,-1.02112 -4.1e-4,-1.76577 0.18476,-0.98482 0.0141,-1.82411 -0.62603,-3.07887 -0.84729,-1.66084 -0.86932,-1.99592 -0.59247,-9.01055 0.28566,-7.23769 0.28177,-7.28866 -0.59239,-7.7565 l -0.87995,-0.47093 0.0826,-12.65817 c 0.0454,-6.96199 0.0627,-13.13037 0.0385,-13.7075 -0.0277,-0.65921 -0.70971,-1.74403 -1.83444,-2.91789 -0.98468,-1.02771 -2.44527,-3.03969 -3.24575,-4.47108 -1.33343,-2.3844 -1.43641,-2.7932 -1.22868,-4.87771 0.12471,-1.25135 0.32736,-3.71438 0.45034,-5.47339 0.21279,-3.04354 1.64534,-10.95571 2.05839,-11.36876 0.10716,-0.10715 0.95113,-0.48235 1.87549,-0.83377 2.15078,-0.8177 7.47586,-4.3187 7.78191,-5.11628 0.12861,-0.33515 -0.0582,-1.43278 -0.4152,-2.43918 -1.35345,-3.8158 -1.30697,-4.7961 0.34614,-7.30049 1.67011,-2.53016 2.32267,-2.83144 5.39229,-2.48964 2.95026,0.32851 3.9051,0.77897 4.20782,1.9851 0.34325,1.36762 -0.0749,5.36935 -0.61775,5.91223 -0.23253,0.23252 -0.42211,1.33126 -0.42129,2.44164 0.002,2.51839 1.15185,4.61739 2.52975,4.61739 1.32879,0 3.00673,0.9175 4.83093,2.64154 1.51757,1.43426 1.57417,1.58454 1.85145,4.91587 0.39301,4.72184 1.60907,8.81941 2.86947,9.66886 0.48026,0.32367 0.46265,1.34659 -0.0717,4.16166 -0.2504,1.31925 -0.5335,2.93463 -0.62912,3.58972 -0.0956,0.65509 -0.53697,1.68222 -0.98078,2.28251 -0.44382,0.60029 -0.80694,1.35386 -0.80694,1.6746 0,1.1227 -0.50617,1.88236 -1.64754,2.47258 l -1.15088,0.59514 0,5.21017 c 0,2.86559 0.17061,6.41396 0.37913,7.88528 0.20852,1.4713 0.46246,4.99214 0.56431,7.82408 0.17792,4.94709 0.1498,5.18221 -0.71715,5.99661 -1.17106,1.10011 -1.61377,3.97702 -1.47158,9.5632 0.0751,2.94939 -0.0442,4.50374 -0.37635,4.90394 -0.26744,0.32225 -0.48626,1.32893 -0.48626,2.23708 0,1.44755 0.20393,1.82057 1.65361,3.02476 2.71355,2.25402 2.38351,2.50659 -3.27549,2.50659 l -4.9291,0 0.40217,-2.21871 c 0.30717,-1.69473 0.26901,-2.70969 -0.16159,-4.29758 -0.37119,-1.36885 -0.56594,-4.22239 -0.57017,-8.35498 -0.004,-4.07031 -0.16296,-6.43275 -0.45175,-6.72175 -0.29745,-0.29768 -0.89473,-0.32949 -1.79898,-0.0958 l -1.35369,0.3498 -0.31504,5.17262 c -0.19599,3.21799 -0.1605,6.07126 0.0939,7.55067 0.32841,1.90955 0.29647,2.54975 -0.1621,3.24962 -0.3141,0.47938 -0.62622,1.83789 -0.6936,3.01892 l -0.12252,2.14734 -2.26343,0.11884 c -1.25612,0.0659 -2.37672,-0.0645 -2.51798,-0.29303 z"
           style="fill:#d40000"
           inkscape:connector-curvature="0" />
      </g>
      <g
         transform="matrix(0.77968214,0,0,0.77968214,83.20962,-61.176797)"
         id="g33329">
        <g
           transform="matrix(0.61227614,0,0,0.61227614,76.923684,129.01789)"
           id="g33331">
          <path
             style="fill:#ffffff;fill-opacity:1;stroke:#000000;stroke-width:2;stroke-linecap:round;stroke-linejoin:round;stroke-miterlimit:4;stroke-opacity:1;stroke-dasharray:none;stroke-dashoffset:0"
             d="m 672.88722,218.39971 c 0.0421,3.9189 -3.21856,7.1359 -6.76185,7.73702 -3.78436,0.77575 -8.1594,-1.11878 -9.71427,-4.96396 -1.17716,-2.83134 -0.32113,-6.30591 1.89228,-8.2986 3.52936,-3.38518 9.64716,-3.1333 12.79978,0.68979 1.10862,1.30369 1.78006,3.01518 1.78378,4.77096"
             id="path33333"
             inkscape:connector-curvature="0" />
          <path
             style="fill:#ffffff;fill-opacity:1;stroke:#000000;stroke-width:2;stroke-linecap:round;stroke-linejoin:round;stroke-miterlimit:4;stroke-opacity:1;stroke-dasharray:none;stroke-dashoffset:0"
             d="m 653.51161,235.00393 c 0.0501,2.85374 -2.33337,5.39904 -5.12552,5.77847 -2.79994,0.48073 -5.88286,-1.12952 -6.82451,-3.86067 -0.92041,-2.41687 0.1005,-5.32504 2.26988,-6.70435 2.38404,-1.64155 5.88855,-1.3699 7.93156,0.70305 1.08664,1.04688 1.75471,2.52022 1.74838,4.03546"
             id="path33335"
             inkscape:connector-curvature="0" />
          <path
             style="fill:#ffffff;fill-opacity:1;stroke:#000000;stroke-width:2;stroke-linecap:round;stroke-linejoin:round;stroke-miterlimit:4;stroke-opacity:1;stroke-dasharray:none;stroke-dashoffset:0"
             d="m 699.43496,130.5406 c -8.06389,0 -15.22336,3.56731 -19.77573,9.08726 -3.00249,-2.87283 -6.9985,-4.62294 -11.37161,-4.62294 -6.94989,0 -12.89734,4.40525 -15.49439,10.71888 -10.2123,0.61452 -18.30331,8.52219 -18.30331,18.1972 0,7.1313 4.38508,13.29314 10.78264,16.29362 -0.0668,0.64258 -0.11326,1.28865 -0.11326,1.94889 0,10.3216 8.37086,18.69575 18.68841,18.69575 3.38197,0 6.55116,-0.92057 9.28756,-2.49277 4.15655,5.79982 11.20296,9.60848 19.18677,9.60848 10.00672,0 18.52351,-6.00589 21.7465,-14.39005 2.11527,0.68143 4.36917,1.04243 6.70517,1.04243 12.2828,0 22.24487,-10.17347 22.24487,-22.70684 l 0,-0.18129 c -0.0914,-11.37139 -8.36864,-20.72689 -19.09615,-22.27626 -2.13555,-10.77436 -12.28997,-18.92236 -24.48747,-18.92236 z"
             id="path33337"
             inkscape:connector-curvature="0" />
        </g>
        <text
           xml:space="preserve"
           style="font-size:10.72048378000000035px;font-style:normal;font-variant:normal;font-weight:normal;font-stretch:normal;text-align:start;line-height:125%;letter-spacing:0px;word-spacing:0px;writing-mode:lr-tb;text-anchor:start;fill:#000000;fill-opacity:1;stroke:none;font-family:Handlee;-inkscape-font-specification:Handlee"
           x="496.77847"
           y="227.74258"
           id="text33339"
           sodipodi:linespacing="125%"><tspan
             sodipodi:role="line"
             id="tspan33341"
             x="496.77847"
             y="227.74258"
             style="text-align:center;text-anchor:middle;-inkscape-font-specification:Handlee;font-family:Handlee;font-weight:normal;font-style:normal;font-stretch:normal;font-variant:normal">Da IST</tspan><tspan
             sodipodi:role="line"
             x="496.77847"
             y="241.14319"
             id="tspan33343"
             style="text-align:center;text-anchor:middle;-inkscape-font-specification:Handlee;font-family:Handlee;font-weight:normal;font-style:normal;font-stretch:normal;font-variant:normal">ein Apfel</tspan></text>
      </g>
    </g>
    <path
       sodipodi:nodetypes="cc"
       inkscape:connector-curvature="0"
       id="path33345"
       d="m 377.79705,165.44825 156.57364,0"
       style="fill:none;stroke:#000000;stroke-width:1px;stroke-linecap:butt;stroke-linejoin:miter;stroke-opacity:1;marker-end:url(#Arrow1Lend)" />
    <g
       transform="translate(18.324881,102.02541)"
       id="g33365">
      <g
         id="g33367"
         transform="translate(71.720831,0)">
        <path
           inkscape:connector-curvature="0"
           style="fill:#d40000"
           d="m 352.347,197.54145 c -0.14001,-0.22653 -0.14026,-1.02112 -4.1e-4,-1.76577 0.18476,-0.98482 0.0141,-1.82411 -0.62603,-3.07887 -0.84729,-1.66084 -0.86932,-1.99592 -0.59247,-9.01055 0.28566,-7.23769 0.28177,-7.28866 -0.59239,-7.7565 l -0.87995,-0.47093 0.0826,-12.65817 c 0.0454,-6.96199 0.0627,-13.13037 0.0385,-13.7075 -0.0277,-0.65921 -0.70971,-1.74403 -1.83444,-2.91789 -0.98468,-1.02771 -2.44527,-3.03969 -3.24575,-4.47108 -1.33343,-2.3844 -1.43641,-2.7932 -1.22868,-4.87771 0.12471,-1.25135 0.32736,-3.71438 0.45034,-5.47339 0.21279,-3.04354 1.64534,-10.95571 2.05839,-11.36876 0.10716,-0.10715 0.95113,-0.48235 1.87549,-0.83377 2.15078,-0.8177 7.47586,-4.3187 7.78191,-5.11628 0.12861,-0.33515 -0.0582,-1.43278 -0.4152,-2.43918 -1.35345,-3.8158 -1.30697,-4.7961 0.34614,-7.30049 1.67011,-2.53016 2.32267,-2.83144 5.39229,-2.48964 2.95026,0.32851 3.9051,0.77897 4.20782,1.9851 0.34325,1.36762 -0.0749,5.36935 -0.61775,5.91223 -0.23253,0.23252 -0.42211,1.33126 -0.42129,2.44164 0.002,2.51839 1.15185,4.61739 2.52975,4.61739 1.32879,0 3.00673,0.9175 4.83093,2.64154 1.51757,1.43426 1.57417,1.58454 1.85145,4.91587 0.39301,4.72184 1.60907,8.81941 2.86947,9.66886 0.48026,0.32367 0.46265,1.34659 -0.0717,4.16166 -0.2504,1.31925 -0.5335,2.93463 -0.62912,3.58972 -0.0956,0.65509 -0.53697,1.68222 -0.98078,2.28251 -0.44382,0.60029 -0.80694,1.35386 -0.80694,1.6746 0,1.1227 -0.50617,1.88236 -1.64754,2.47258 l -1.15088,0.59514 0,5.21017 c 0,2.86559 0.17061,6.41396 0.37913,7.88528 0.20852,1.4713 0.46246,4.99214 0.56431,7.82408 0.17792,4.94709 0.1498,5.18221 -0.71715,5.99661 -1.17106,1.10011 -1.61377,3.97702 -1.47158,9.5632 0.0751,2.94939 -0.0442,4.50374 -0.37635,4.90394 -0.26744,0.32225 -0.48626,1.32893 -0.48626,2.23708 0,1.44755 0.20393,1.82057 1.65361,3.02476 2.71355,2.25402 2.38351,2.50659 -3.27549,2.50659 l -4.9291,0 0.40217,-2.21871 c 0.30717,-1.69473 0.26901,-2.70969 -0.16159,-4.29758 -0.37119,-1.36885 -0.56594,-4.22239 -0.57017,-8.35498 -0.004,-4.07031 -0.16296,-6.43275 -0.45175,-6.72175 -0.29745,-0.29768 -0.89473,-0.32949 -1.79898,-0.0958 l -1.35369,0.3498 -0.31504,5.17262 c -0.19599,3.21799 -0.1605,6.07126 0.0939,7.55067 0.32841,1.90955 0.29647,2.54975 -0.1621,3.24962 -0.3141,0.47938 -0.62622,1.83789 -0.6936,3.01892 l -0.12252,2.14734 -2.26343,0.11884 c -1.25612,0.0659 -2.37672,-0.0645 -2.51798,-0.29303 z"
           id="path33369" />
      </g>
      <g
         id="g33371"
         transform="matrix(0.77968214,0,0,0.77968214,83.20962,-61.176797)">
        <g
           id="g33373"
           transform="matrix(0.61227614,0,0,0.61227614,76.923684,129.01789)">
          <path
             inkscape:connector-curvature="0"
             id="path33375"
             d="m 672.88722,218.39971 c 0.0421,3.9189 -3.21856,7.1359 -6.76185,7.73702 -3.78436,0.77575 -8.1594,-1.11878 -9.71427,-4.96396 -1.17716,-2.83134 -0.32113,-6.30591 1.89228,-8.2986 3.52936,-3.38518 9.64716,-3.1333 12.79978,0.68979 1.10862,1.30369 1.78006,3.01518 1.78378,4.77096"
             style="fill:#ffffff;fill-opacity:1;stroke:#000000;stroke-width:2;stroke-linecap:round;stroke-linejoin:round;stroke-miterlimit:4;stroke-opacity:1;stroke-dasharray:none;stroke-dashoffset:0" />
          <path
             inkscape:connector-curvature="0"
             id="path33377"
             d="m 653.51161,235.00393 c 0.0501,2.85374 -2.33337,5.39904 -5.12552,5.77847 -2.79994,0.48073 -5.88286,-1.12952 -6.82451,-3.86067 -0.92041,-2.41687 0.1005,-5.32504 2.26988,-6.70435 2.38404,-1.64155 5.88855,-1.3699 7.93156,0.70305 1.08664,1.04688 1.75471,2.52022 1.74838,4.03546"
             style="fill:#ffffff;fill-opacity:1;stroke:#000000;stroke-width:2;stroke-linecap:round;stroke-linejoin:round;stroke-miterlimit:4;stroke-opacity:1;stroke-dasharray:none;stroke-dashoffset:0" />
          <path
             inkscape:connector-curvature="0"
             id="path33379"
             d="m 699.43496,130.5406 c -8.06389,0 -15.22336,3.56731 -19.77573,9.08726 -3.00249,-2.87283 -6.9985,-4.62294 -11.37161,-4.62294 -6.94989,0 -12.89734,4.40525 -15.49439,10.71888 -10.2123,0.61452 -18.30331,8.52219 -18.30331,18.1972 0,7.1313 4.38508,13.29314 10.78264,16.29362 -0.0668,0.64258 -0.11326,1.28865 -0.11326,1.94889 0,10.3216 8.37086,18.69575 18.68841,18.69575 3.38197,0 6.55116,-0.92057 9.28756,-2.49277 4.15655,5.79982 11.20296,9.60848 19.18677,9.60848 10.00672,0 18.52351,-6.00589 21.7465,-14.39005 2.11527,0.68143 4.36917,1.04243 6.70517,1.04243 12.2828,0 22.24487,-10.17347 22.24487,-22.70684 l 0,-0.18129 c -0.0914,-11.37139 -8.36864,-20.72689 -19.09615,-22.27626 -2.13555,-10.77436 -12.28997,-18.92236 -24.48747,-18.92236 z"
             style="fill:#ffffff;fill-opacity:1;stroke:#000000;stroke-width:2;stroke-linecap:round;stroke-linejoin:round;stroke-miterlimit:4;stroke-opacity:1;stroke-dasharray:none;stroke-dashoffset:0" />
        </g>
        <text
           sodipodi:linespacing="125%"
           id="text33381"
           y="227.74258"
           x="496.77847"
           style="font-size:10.72048378000000035px;font-style:normal;font-variant:normal;font-weight:normal;font-stretch:normal;text-align:start;line-height:125%;letter-spacing:0px;word-spacing:0px;writing-mode:lr-tb;text-anchor:start;fill:#000000;fill-opacity:1;stroke:none;font-family:Handlee;-inkscape-font-specification:Handlee"
           xml:space="preserve"><tspan
             style="text-align:center;text-anchor:middle;-inkscape-font-specification:Handlee;font-family:Handlee;font-weight:normal;font-style:normal;font-stretch:normal;font-variant:normal"
             y="227.74258"
             x="496.77847"
             id="tspan33383"
             sodipodi:role="line">Da IST</tspan><tspan
             style="text-align:center;text-anchor:middle;-inkscape-font-specification:Handlee;font-family:Handlee;font-weight:normal;font-style:normal;font-stretch:normal;font-variant:normal"
             id="tspan33385"
             y="241.14319"
             x="496.77847"
             sodipodi:role="line">ein Apfel</tspan></text>
      </g>
    </g>
    <path
       sodipodi:nodetypes="cc"
       inkscape:connector-curvature="0"
       id="path33387"
       d="m 324.29957,236.15893 103.03557,0"
       style="fill:none;stroke:#000000;stroke-width:1px;stroke-linecap:butt;stroke-linejoin:miter;stroke-opacity:1;marker-end:url(#Arrow1Lend)" />
    <path
       style="fill:none;stroke:#000000;stroke-width:1px;stroke-linecap:butt;stroke-linejoin:miter;stroke-opacity:1;marker-end:url(#Arrow1Lend)"
       d="m 517.19809,236.15893 37.37565,0"
       id="path33389"
       inkscape:connector-curvature="0"
       sodipodi:nodetypes="cc" />
    <text
       sodipodi:linespacing="125%"
       id="text3057"
       y="56.274857"
       x="356.13617"
       style="font-size:15px;font-style:normal;font-weight:normal;line-height:125%;letter-spacing:0px;word-spacing:0px;fill:#000000;fill-opacity:1;stroke:none;font-family:Sans"
       xml:space="preserve"><tspan
         style="font-size:15px;font-style:normal;font-variant:normal;font-weight:normal;font-stretch:normal;text-align:center;text-anchor:middle;font-family:Tenor Sans;-inkscape-font-specification:Tenor Sans"
         y="56.274857"
         x="356.13617"
         sodipodi:role="line"
         id="tspan3065">Empfinden IST</tspan><tspan
         style="font-size:15px;font-style:normal;font-variant:normal;font-weight:normal;font-stretch:normal;text-align:center;text-anchor:middle;font-family:Tenor Sans;-inkscape-font-specification:Tenor Sans"
         y="75.024857"
         x="356.13617"
         sodipodi:role="line"
         id="tspan3103">nichtinferentielles</tspan><tspan
         style="font-size:15px;font-style:normal;font-variant:normal;font-weight:normal;font-stretch:normal;text-align:center;text-anchor:middle;font-family:Tenor Sans;-inkscape-font-specification:Tenor Sans"
         y="93.774857"
         x="356.13617"
         sodipodi:role="line"
         id="tspan3069">Wissen</tspan></text>
    <text
       xml:space="preserve"
       style="font-size:40px;font-style:normal;font-weight:normal;text-align:center;line-height:125%;letter-spacing:0px;word-spacing:0px;writing-mode:lr-tb;text-anchor:middle;fill:#000000;fill-opacity:1;stroke:none;font-family:Sans"
       x="214.15234"
       y="228.0777"
       id="text3077"
       sodipodi:linespacing="125%"><tspan
         sodipodi:role="line"
         id="tspan3079"
         x="214.15234"
         y="228.0777" /></text>
    <text
       xml:space="preserve"
       style="font-size:15px;font-style:normal;font-variant:normal;font-weight:normal;font-stretch:normal;text-align:center;line-height:125%;letter-spacing:0px;word-spacing:0px;writing-mode:lr-tb;text-anchor:middle;fill:#000000;fill-opacity:1;stroke:none;font-family:Tenor Sans;-inkscape-font-specification:Tenor Sans"
       x="251.52798"
       y="183.631"
       id="text3081"
       sodipodi:linespacing="125%"><tspan
         sodipodi:role="line"
         id="tspan3083"
         x="251.52798"
         y="183.631">kausale</tspan><tspan
         sodipodi:role="line"
         x="251.52798"
         y="202.381"
         id="tspan3085">Relation</tspan></text>
    <text
       sodipodi:linespacing="125%"
       id="text3087"
       y="230.52361"
       x="368.57236"
       style="font-size:15px;font-style:normal;font-variant:normal;font-weight:normal;font-stretch:normal;text-align:center;line-height:125%;letter-spacing:0px;word-spacing:0px;writing-mode:lr-tb;text-anchor:middle;fill:#000000;fill-opacity:1;stroke:none;font-family:Tenor Sans;-inkscape-font-specification:Tenor Sans"
       xml:space="preserve"><tspan
         id="tspan3091"
         y="230.52361"
         x="368.57236"
         sodipodi:role="line">Empfinden,</tspan><tspan
         y="249.27361"
         x="368.57236"
         sodipodi:role="line"
         id="tspan3095">dass etwas</tspan><tspan
         y="268.02362"
         x="368.57236"
         sodipodi:role="line"
         id="tspan3097">so ist</tspan></text>
    <text
       xml:space="preserve"
       style="font-size:20px;font-style:normal;font-variant:normal;font-weight:normal;font-stretch:normal;text-align:center;line-height:125%;letter-spacing:0px;word-spacing:0px;writing-mode:lr-tb;text-anchor:middle;fill:#000000;fill-opacity:1;stroke:none;font-family:Tenor Sans;-inkscape-font-specification:Tenor Sans"
       x="275.77164"
       y="206.8645"
       id="text3099"
       sodipodi:linespacing="125%"><tspan
         sodipodi:role="line"
         id="tspan3101"
         x="275.77164"
         y="206.8645" /></text>
    <text
       xml:space="preserve"
       style="font-size:15px;font-style:normal;font-weight:normal;line-height:125%;letter-spacing:0px;word-spacing:0px;fill:#000000;fill-opacity:1;stroke:none;font-family:Sans"
       x="456.32587"
       y="320.00159"
       id="text3111"
       sodipodi:linespacing="125%"><tspan
         sodipodi:role="line"
         x="456.32587"
         y="320.00159"
         style="font-size:15px;font-style:normal;font-variant:normal;font-weight:normal;font-stretch:normal;text-align:center;text-anchor:middle;font-family:Tenor Sans;-inkscape-font-specification:Tenor Sans"
         id="tspan4645">nichtinferentielles</tspan><tspan
         id="tspan3117"
         sodipodi:role="line"
         x="456.32587"
         y="338.75159"
         style="font-size:15px;font-style:normal;font-variant:normal;font-weight:normal;font-stretch:normal;text-align:center;text-anchor:middle;font-family:Tenor Sans;-inkscape-font-specification:Tenor Sans">Wissen</tspan></text>
    <text
       xml:space="preserve"
       style="font-size:15px;font-style:normal;font-variant:normal;font-weight:normal;font-stretch:normal;text-align:center;line-height:125%;letter-spacing:0px;word-spacing:0px;writing-mode:lr-tb;text-anchor:middle;fill:#000000;fill-opacity:1;stroke:none;font-family:Tenor Sans;-inkscape-font-specification:Tenor Sans"
       x="500.02551"
       y="194.74268"
       id="text3133"
       sodipodi:linespacing="125%"><tspan
         sodipodi:role="line"
         x="500.02551"
         y="194.74268"
         id="tspan3137">Inferenzen</tspan></text>
    <text
       sodipodi:linespacing="125%"
       id="text3147"
       y="-717.32788"
       x="183.78262"
       style="font-size:40px;font-style:normal;font-weight:normal;line-height:125%;letter-spacing:0px;word-spacing:0px;fill:#d40000;fill-opacity:1;stroke:none;font-family:Sans"
       xml:space="preserve"
       transform="matrix(0,1,-1,0,0,0)"><tspan
         style="font-size:20px;font-style:normal;font-variant:normal;font-weight:normal;font-stretch:normal;text-align:center;text-anchor:middle;fill:#d40000;font-family:Tenor Sans;-inkscape-font-specification:Tenor Sans"
         id="tspan3151"
         y="-717.32788"
         x="187.27872"
         sodipodi:role="line">Inferentielles </tspan><tspan
         style="font-size:20px;font-style:normal;font-variant:normal;font-weight:normal;font-stretch:normal;text-align:center;text-anchor:middle;fill:#d40000;font-family:Tenor Sans;-inkscape-font-specification:Tenor Sans"
         y="-692.32788"
         x="183.78262"
         sodipodi:role="line"
         id="tspan3155">Wisen</tspan></text>
    <text
       xml:space="preserve"
       style="font-size:40px;font-style:normal;font-weight:normal;line-height:125%;letter-spacing:0px;word-spacing:0px;fill:#d40000;fill-opacity:1;stroke:none;font-family:Sans"
       x="115.73596"
       y="149.9055"
       id="text3157"
       sodipodi:linespacing="125%"><tspan
         id="tspan3161"
         sodipodi:role="line"
         x="119.23206"
         y="149.9055"
         style="font-size:20px;font-style:normal;font-variant:normal;font-weight:normal;font-stretch:normal;text-align:center;text-anchor:middle;fill:#d40000;font-family:Tenor Sans;-inkscape-font-specification:Tenor Sans">Physikalische </tspan><tspan
         sodipodi:role="line"
         x="115.73596"
         y="174.9055"
         style="font-size:20px;font-style:normal;font-variant:normal;font-weight:normal;font-stretch:normal;text-align:center;text-anchor:middle;fill:#d40000;font-family:Tenor Sans;-inkscape-font-specification:Tenor Sans"
         id="tspan3165">Objekte</tspan></text>
    <text
       xml:space="preserve"
       style="font-size:20px;font-style:normal;font-variant:normal;font-weight:normal;font-stretch:normal;text-align:start;line-height:125%;letter-spacing:0px;word-spacing:0px;writing-mode:lr-tb;text-anchor:start;fill:#000000;fill-opacity:1;stroke:none;font-family:Tenor Sans;-inkscape-font-specification:Tenor Sans"
       x="138.18391"
       y="38.50745"
       id="text3167"
       sodipodi:linespacing="125%"><tspan
         sodipodi:role="line"
         x="138.18391"
         y="38.50745"
         id="tspan4601"
         style="text-align:center;text-anchor:middle">Sinnesdatentheorie</tspan><tspan
         sodipodi:role="line"
         x="138.18391"
         y="63.50745"
         style="text-align:center;text-anchor:middle"
         id="tspan4615">(Mythos des Gegebenen)</tspan></text>
    <path
       style="fill:none;stroke:#000000;stroke-width:1px;stroke-linecap:butt;stroke-linejoin:miter;stroke-opacity:1;marker-start:url(#Arrow1Lstart)"
       d="M 170.85423,101.95362 211.7731,86.16037"
       id="path3171"
       inkscape:connector-curvature="0"
       transform="translate(9.0913725,16.95582)" />
    <text
       xml:space="preserve"
       style="font-size:20px;font-style:normal;font-variant:normal;font-weight:normal;font-stretch:normal;text-align:center;line-height:125%;letter-spacing:0px;word-spacing:0px;writing-mode:lr-tb;text-anchor:middle;fill:#008000;fill-opacity:1;stroke:none;font-family:Tenor Sans;-inkscape-font-specification:Tenor Sans"
       x="260.3476"
       y="98.091072"
       id="text4595"
       sodipodi:linespacing="125%"><tspan
         sodipodi:role="line"
         id="tspan4597"
         x="260.3476"
         y="98.091072"
         style="font-size:15px;-inkscape-font-specification:Handlee;font-family:Handlee;font-weight:normal;font-style:normal;font-stretch:normal;font-variant:normal;fill:#008000">epistemische</tspan><tspan
         sodipodi:role="line"
         x="260.3476"
         y="116.84107"
         id="tspan4599"
         style="font-size:15px;-inkscape-font-specification:Handlee;font-family:Handlee;font-weight:normal;font-style:normal;font-stretch:normal;font-variant:normal;fill:#008000">Objektivität</tspan></text>
    <text
       xml:space="preserve"
       style="font-size:20px;font-style:normal;font-variant:normal;font-weight:normal;font-stretch:normal;text-align:start;line-height:125%;letter-spacing:0px;word-spacing:0px;writing-mode:lr-tb;text-anchor:start;fill:#000000;fill-opacity:1;stroke:none;font-family:Tenor Sans;-inkscape-font-specification:Tenor Sans"
       x="24.899239"
       y="320.63229"
       id="text4603"
       sodipodi:linespacing="125%"><tspan
         sodipodi:role="line"
         id="tspan4605"
         x="24.899239"
         y="320.63229">Wilfrid Sellars</tspan></text>
    <text
       xml:space="preserve"
       style="font-size:20px;font-style:normal;font-variant:normal;font-weight:normal;font-stretch:normal;text-align:start;line-height:125%;letter-spacing:0px;word-spacing:0px;writing-mode:lr-tb;text-anchor:start;fill:#008000;fill-opacity:1;stroke:none;font-family:Tenor Sans;-inkscape-font-specification:Tenor Sans"
       x="490.86026"
       y="37.071693"
       id="text4619"
       sodipodi:linespacing="125%"><tspan
         sodipodi:role="line"
         id="tspan4621"
         x="490.86026"
         y="37.071693"
         style="font-size:15px;font-style:normal;font-variant:normal;font-weight:normal;font-stretch:normal;text-align:start;text-anchor:start;fill:#008000;font-family:Handlee;-inkscape-font-specification:Handlee">Basale Theorie des</tspan><tspan
         sodipodi:role="line"
         x="490.86026"
         y="55.821693"
         id="tspan4623"
         style="font-size:15px;font-style:normal;font-variant:normal;font-weight:normal;font-stretch:normal;text-align:start;text-anchor:start;fill:#008000;font-family:Handlee;-inkscape-font-specification:Handlee">reflexiven Zweifelwissens</tspan><tspan
         sodipodi:role="line"
         x="490.86026"
         y="74.571693"
         style="font-size:15px;font-style:normal;font-variant:normal;font-weight:normal;font-stretch:normal;text-align:start;text-anchor:start;fill:#008000;font-family:Handlee;-inkscape-font-specification:Handlee"
         id="tspan4639">(intrinsische Rechtfertigung)</tspan></text>
    <path
       inkscape:connector-curvature="0"
       id="path4625"
       d="m 179.9456,255.30567 22.972,29.43287"
       style="fill:none;stroke:#000000;stroke-width:1px;stroke-linecap:butt;stroke-linejoin:miter;stroke-opacity:1;marker-start:url(#Arrow1Lstart)"
       sodipodi:nodetypes="cc" />
    <text
       sodipodi:linespacing="125%"
       id="text4627"
       y="298.37817"
       x="233.78622"
       style="font-size:20px;font-style:normal;font-variant:normal;font-weight:normal;font-stretch:normal;text-align:center;line-height:125%;letter-spacing:0px;word-spacing:0px;writing-mode:lr-tb;text-anchor:middle;fill:#008000;fill-opacity:1;stroke:none;font-family:Tenor Sans;-inkscape-font-specification:Tenor Sans"
       xml:space="preserve"><tspan
         style="font-size:15px;font-style:normal;font-variant:normal;font-weight:normal;font-stretch:normal;fill:#008000;font-family:Handlee;-inkscape-font-specification:Handlee"
         id="tspan4631"
         y="298.37817"
         x="233.78622"
         sodipodi:role="line">unzugängliche</tspan><tspan
         style="font-size:15px;font-style:normal;font-variant:normal;font-weight:normal;font-stretch:normal;fill:#008000;font-family:Handlee;-inkscape-font-specification:Handlee"
         y="317.12817"
         x="235.48544"
         sodipodi:role="line"
         id="tspan4635">Entität, </tspan><tspan
         style="font-size:15px;font-style:normal;font-variant:normal;font-weight:normal;font-stretch:normal;fill:#008000;font-family:Handlee;-inkscape-font-specification:Handlee"
         y="335.87817"
         x="233.78622"
         sodipodi:role="line"
         id="tspan4896">systemisch</tspan><tspan
         style="font-size:15px;font-style:normal;font-variant:normal;font-weight:normal;font-stretch:normal;fill:#008000;font-family:Handlee;-inkscape-font-specification:Handlee"
         y="354.62817"
         x="233.78622"
         sodipodi:role="line"
         id="tspan4898">inert</tspan></text>
    <text
       xml:space="preserve"
       style="font-size:20px;font-style:normal;font-variant:normal;font-weight:normal;font-stretch:normal;text-align:center;line-height:125%;letter-spacing:0px;word-spacing:0px;writing-mode:lr-tb;text-anchor:middle;fill:#000000;fill-opacity:1;stroke:none;font-family:Tenor Sans;-inkscape-font-specification:Tenor Sans"
       x="69.633865"
       y="226.14598"
       id="text4641"
       sodipodi:linespacing="125%"
       transform="translate(9.0913725,16.95582)"><tspan
         sodipodi:role="line"
         id="tspan4643"
         x="69.633865"
         y="226.14598" /></text>
    <path
       style="fill:none;stroke:#000000;stroke-width:1px;stroke-linecap:butt;stroke-linejoin:miter;stroke-opacity:1;marker-end:url(#Arrow1Lend)"
       d="m 476.66893,35.909127 -68.91598,1.43575"
       id="path4655"
       inkscape:connector-curvature="0"
       transform="translate(9.0913725,16.95582)"
       sodipodi:nodetypes="cc" />
    <text
       xml:space="preserve"
       style="font-size:20px;font-style:normal;font-variant:normal;font-weight:normal;font-stretch:normal;text-align:center;line-height:125%;letter-spacing:0px;word-spacing:0px;writing-mode:lr-tb;text-anchor:middle;fill:#008000;fill-opacity:1;stroke:none;font-family:Tenor Sans;-inkscape-font-specification:Tenor Sans"
       x="348.64621"
       y="312.01779"
       id="text4900"
       sodipodi:linespacing="125%"><tspan
         id="tspan4908"
         sodipodi:role="line"
         x="348.64621"
         y="312.01779"
         style="font-size:15px;font-style:normal;font-variant:normal;font-weight:normal;font-stretch:normal;fill:#008000;font-family:Handlee;-inkscape-font-specification:Handlee">benötigt</tspan><tspan
         sodipodi:role="line"
         x="350.34543"
         y="330.76779"
         style="font-size:15px;font-style:normal;font-variant:normal;font-weight:normal;font-stretch:normal;fill:#008000;font-family:Handlee;-inkscape-font-specification:Handlee"
         id="tspan4919">erworbene </tspan><tspan
         sodipodi:role="line"
         x="348.64621"
         y="349.51779"
         style="font-size:15px;font-style:normal;font-variant:normal;font-weight:normal;font-stretch:normal;fill:#008000;font-family:Handlee;-inkscape-font-specification:Handlee"
         id="tspan4921">Begriffe</tspan></text>
    <path
       transform="translate(9.0913725,16.95582)"
       inkscape:connector-curvature="0"
       id="path4923"
       d="m 358.21958,251.2716 -12.20387,28.71499"
       style="fill:none;stroke:#000000;stroke-width:1px;stroke-linecap:butt;stroke-linejoin:miter;stroke-opacity:1;marker-start:url(#Arrow1Lstart)"
       sodipodi:nodetypes="cc" />
  </g>
</svg>
